<svg xmlns="http://www.w3.org/2000/svg" version="1.1" xmlns:xlink="http://www.w3.org/1999/xlink" xmlns:svgjs="http://svgjs.dev/svgjs" width="1000" height="209" viewBox="0 0 1000 209"><g transform="matrix(1,0,0,1,-0.6060606060606233,-0.4882737936684123)"><svg viewBox="0 0 396 83" data-background-color="#ffffff" preserveAspectRatio="xMidYMid meet" height="209" width="1000" xmlns="http://www.w3.org/2000/svg" xmlns:xlink="http://www.w3.org/1999/xlink"><g id="tight-bounds" transform="matrix(1,0,0,1,0.2400000000000091,0.19390777451903318)"><svg viewBox="0 0 395.52 82.61218445096195" height="82.61218445096195" width="395.52"><g><svg viewBox="0 0 523.5550530343662 109.35484074511587" height="82.61218445096195" width="395.52"><g transform="matrix(1,0,0,1,0,15.113440363471156)"><svg viewBox="0 0 395.52 79.12796001817355" height="79.12796001817355" width="395.52"><g id="textblocktransform"><svg viewBox="0 0 395.52 79.12796001817355" height="79.12796001817355" width="395.52" id="textblock"><g><svg viewBox="0 0 395.52 79.12796001817355" height="79.12796001817355" width="395.52"><g transform="matrix(1,0,0,1,0,0)"><svg width="395.52" viewBox="4.58 -33.39 166.89 33.39" height="79.12796001817355" data-palette-color="#5f4773"><path d="M25.96-33.27L29.83-33.27 29.83 0 25.96 0 25.96-15.65 8.44-15.65 8.44 0 4.58 0 4.58-33.27 8.44-33.27 8.44-19.11 25.96-19.11 25.96-33.27ZM47.67-24.37L43.75-14.05 54.5-14.05 50.63-24.37Q49.85-26.49 49.09-29.17L49.09-29.17Q48.63-27.1 47.67-24.37L47.67-24.37ZM50.78-33.39L63.85 0 59.86 0 55.71-10.57 42.39-10.57 38.29 0 34.38 0 47.52-33.39 50.78-33.39ZM71.99-21.16L71.99-21.16 71.99 0 68.42 0 68.42-33.27 74.24-33.27 84.78-5.81 84.95-5.81 95.57-33.27 101.36-33.27 101.36 0 97.49 0 97.49-21.44Q97.49-25.28 97.82-29.45L97.82-29.45 97.62-29.45 86.24 0 83.13 0 71.86-29.47 71.68-29.47Q71.99-25.99 71.99-21.16ZM119.2-24.37L115.29-14.05 126.03-14.05 122.16-24.37Q121.38-26.49 120.62-29.17L120.62-29.17Q120.16-27.1 119.2-24.37L119.2-24.37ZM122.31-33.39L135.38 0 131.39 0 127.24-10.57 113.92-10.57 109.83 0 105.91 0 119.05-33.39 122.31-33.39ZM143.82-33.27L143.82 0 139.95 0 139.95-33.27 143.82-33.27ZM171.47-3.51L171.47 0 152.95 0 152.95-33.27 156.81-33.27 156.81-3.51 171.47-3.51Z" opacity="1" transform="matrix(1,0,0,1,0,0)" fill="#5f4773" class="undefined-text-0" data-fill-palette-color="primary" id="text-0"></path></svg></g></svg></g></svg></g></svg></g><g transform="matrix(1,0,0,1,414.2002122892503,0)"><svg viewBox="0 0 109.35484074511587 109.35484074511587" height="109.35484074511587" width="109.35484074511587"><g data-palette-color="#60448e"><rect width="29.890323136998337" height="109.35484074511587" fill="#60448e" stroke="transparent" data-fill-palette-color="accent" x="0" fill-opacity="1"></rect><rect width="29.890323136998337" height="109.35484074511587" fill="#60448e" stroke="transparent" data-fill-palette-color="accent" x="36.45161358170529" fill-opacity="0.75"></rect><rect width="29.890323136998337" height="109.35484074511587" fill="#60448e" stroke="transparent" data-fill-palette-color="accent" x="72.90322716341058" fill-opacity="0.5"></rect></g></svg></g></svg></g><defs></defs></svg><rect width="395.52" height="82.61218445096195" fill="none" stroke="none" visibility="hidden"></rect></g></svg></g></svg>